. 
  
http://www.torrenting.com/        :     Greatest Movie Tracker on The Net!!!
 
http://www.Torrenting.com          :     Once & For all ;)


               www . Torrenting . Com 

(((((((((((((= Enjoy No RAR releases =))))))))))))))))))))


...................................NFO:....................................

.[img]http://lookpic.com/c1/i2/242/RWclShaB.jpeg[/img]
[pre]
     _______.     ___      .___  ___.  __    __  .______          ___       __  
    /       |    /   \     |   \/   | |  |  |  | |   _  \        /   \     |  | 
   |   (----`   /  ^  \    |  \  /  | |  |  |  | |  |_)  |      /  ^  \    |  | 
    \   \      /  /_\  \   |  |\/|  | |  |  |  | |      /      /  /_\  \   |  | 
.----)   |    /  _____  \  |  |  |  | |  `--'  | |  |\  \----./  _____  \  |  | 
|_______/    /__/     \__\ |__|  |__|  \______/  | _| `._____/__/     \__\ |__| 
                                                                                

Terri.2011.BRRiP.AC-3.XViD-SAMURAi

ANOTHER QUALiTY SAMURAi RELEASE!!!

Encoder........: SAMURAi
Video Codec....: XViD
Audio Codec....: AC-3
Audio Bitrate..: 448 kb/s
Subtitles......: N/a
Resolution.....: 730 x 384
Runtime........: 105 min
Language.......: English
IMDB Link......: http://www.imdb.com/title/tt1687281/
Genre..........: Comedy
Ratings........: 6.9/10 from 788 users
Stars..........: John C. Reilly, Jacob Wysocki and Bridger Zadina
Plot...........: Centers on a large 15-year-old boy in a small town as he struggles to adjust to his 
difficult life.



Video Source: Terri.2011.BluRay.720p.DTS.x264-CHD
Audio Source: Terri.2011.BluRay.720p.DTS.x264-CHD
 
Format                           : AVI
Format/Info                      : Audio Video Interleave
File size                        : 1.37 GiB
Duration                         : 1h 45mn
Overall bit rate                 : 1 866 Kbps
Writing application              : VirtualDubMod 1.5.10.2 (build 2540/release)
Writing library                  : VirtualDubMod build 2540/release

Video
ID                               : 0
Format                           : MPEG-4 Visual
Format profile                   : Advanced Simple@L5
Format settings, BVOP            : 2
Format settings, QPel            : No
Format settings, GMC             : No warppoints
Format settings, Matrix          : Default (H.263)
Muxing mode                      : Packed bitstream
Codec ID                         : XVID
Codec ID/Hint                    : XviD
Duration                         : 1h 45mn
Bit rate                         : 1 408 Kbps
Width                            : 720 pixels
Height                           : 384 pixels
Display aspect ratio             : 1.875
Frame rate                       : 23.976 fps
Color space                      : YUV
Chroma subsampling               : 4:2:0
Bit depth                        : 8 bits
Scan type                        : Progressive
Compression mode                 : Lossy
Bits/(Pixel*Frame)               : 0.212
Stream size                      : 1.03 GiB (75%)
Writing library                  : XviD 64

Audio
ID                               : 1
Format                           : AC-3
Format/Info                      : Audio Coding 3
Mode extension                   : CM (complete main)
Codec ID                         : 2000
Duration                         : 1h 45mn
Bit rate mode                    : Constant
Bit rate                         : 448 Kbps
Channel(s)                       : 6 channels
Channel positions                : Front: L C R, Side: L R, LFE
Sampling rate                    : 48.0 KHz
Bit depth                        : 16 bits
Compression mode                 : Lossy
Stream size                      : 337 MiB (24%)
Alignment                        : Split accross interleaves
Interleave, duration             : 42 ms (1.00 video frame)
Interleave, preload duration     : 500 ms







Release Notes:
Usual filters added, denoiser, sharpener, brightness/contrast

Screenshots:
[IMG]http://lookpic.com/c1/i2/2850/yRoTmPe9.png[/IMG]
[IMG]http://lookpic.com/c1/i2/3787/o6KkjnH.png[/IMG]
[IMG]http://lookpic.com/c1/i2/3809/3bOsgQJ7.png[/IMG]
[IMG]http://lookpic.com/c1/i2/2130/F9hJQ4L1.png[/IMG]
[IMG]http://lookpic.com/c1/i2/581/lVQ9syS1.png[/IMG]
[IMG]http://lookpic.com/c1/i2/2529/iPVXk4aN.png[/IMG]


Greetz:
ViSiON, SiC, SANTi, IMAGiNE, MEM, LKRG, DTRG, FLAWL3SS, WBZ, NPW,
CM8, UnKnown, ETRG, SaM, Blackjesus, NOiR, EP1C, EMBER...and other p2p
groups past and present good job!

[/pre]